<svg xmlns="http://www.w3.org/2000/svg" viewBox="0 0 128 128"><defs><linearGradient id="b" x2="1" y2="1"><stop stop-color="#171c59"/><stop offset="1" stop-color="#58276c"/></linearGradient><linearGradient id="c" x2="0" y2="1"><stop stop-color="#ffd983"/><stop offset="1" stop-color="#b76c37"/></linearGradient></defs><rect width="128" height="128" rx="26" fill="url(#b)"/><path d="M25 89 35 37h58l10 52-12 17H37Z" fill="url(#c)" stroke="#ffedb2" stroke-width="3"/><path d="M31 53h66M29 67h70M27 81h74" stroke="#8e3777" stroke-width="5"/><path d="m40 39 9 12 9-12 9 12 9-12 9 12 9-12" fill="none" stroke="#fff0bd" stroke-width="3"/><path d="m64 58 7 8 10 1-7 7 2 10-12-5-11 5 2-10-8-7 11-1Z" fill="#fff2bd"/><path d="M44 95h40" stroke="#78324f" stroke-width="4" stroke-linecap="round"/></svg>
